<svg width="22" height="22" viewBox="0 0 22 22" fill="none" xmlns="http://www.w3.org/2000/svg">
<ellipse cx="6.41658" cy="15.5833" rx="1.83333" ry="1.83333" stroke="#FDFBF9" stroke-opacity="0.9" stroke-width="1.5" stroke-linecap="round" stroke-linejoin="round"/>
<circle cx="15.5833" cy="15.5833" r="1.83333" stroke="#FDFBF9" stroke-opacity="0.9" stroke-width="1.5" stroke-linecap="round" stroke-linejoin="round"/>
<path d="M4.58333 16.3333C4.99755 16.3333 5.33333 15.9975 5.33333 15.5833C5.33333 15.1691 4.99755 14.8333 4.58333 14.8333V16.3333ZM2.75 15.5833H2C2 15.9975 2.33579 16.3333 2.75 16.3333V15.5833ZM2.75 10.0833L2.05364 9.80479C2.01821 9.89338 2 9.98792 2 10.0833H2.75ZM4.58333 5.5V4.75C4.27665 4.75 4.00087 4.93671 3.88698 5.22146L4.58333 5.5ZM12.8333 5.5L13.419 5.03148C13.2767 4.85357 13.0612 4.75 12.8333 4.75V5.5ZM16.5 10.0833L15.9143 10.5519C16.0567 10.7298 16.2722 10.8333 16.5 10.8333V10.0833ZM19.25 15.5833V16.3333C19.6642 16.3333 20 15.9975 20 15.5833H19.25ZM17.4167 14.8333C17.0025 14.8333 16.6667 15.1691 16.6667 15.5833C16.6667 15.9975 17.0025 16.3333 17.4167 16.3333V14.8333ZM13.75 16.3333C14.1642 16.3333 14.5 15.9975 14.5 15.5833C14.5 15.1691 14.1642 14.8333 13.75 14.8333V16.3333ZM8.25 14.8333C7.83579 14.8333 7.5 15.1691 7.5 15.5833C7.5 15.9975 7.83579 16.3333 8.25 16.3333V14.8333ZM2.75 9.33333C2.33579 9.33333 2 9.66912 2 10.0833C2 10.4975 2.33579 10.8333 2.75 10.8333V9.33333ZM16.5 10.8333C16.9142 10.8333 17.25 10.4975 17.25 10.0833C17.25 9.66912 16.9142 9.33333 16.5 9.33333V10.8333ZM10.25 10.0833C10.25 10.4975 10.5858 10.8333 11 10.8333C11.4142 10.8333 11.75 10.4975 11.75 10.0833H10.25ZM11.75 5.5C11.75 5.08579 11.4142 4.75 11 4.75C10.5858 4.75 10.25 5.08579 10.25 5.5H11.75ZM4.58333 15.5833V14.8333H2.75V15.5833V16.3333H4.58333V15.5833ZM2.75 15.5833H3.5V10.0833H2.75H2V15.5833H2.75ZM2.75 10.0833L3.44636 10.3619L5.27969 5.77854L4.58333 5.5L3.88698 5.22146L2.05364 9.80479L2.75 10.0833ZM4.58333 5.5V6.25H12.8333V5.5V4.75H4.58333V5.5ZM12.8333 5.5L12.2477 5.96852L15.9143 10.5519L16.5 10.0833L17.0857 9.61481L13.419 5.03148L12.8333 5.5ZM16.5 10.0833V10.8333H17.4167V10.0833V9.33333H16.5V10.0833ZM17.4167 10.0833V10.8333C18.015 10.8333 18.5 11.3184 18.5 11.9167H19.25H20C20 10.4899 18.8434 9.33333 17.4167 9.33333V10.0833ZM19.25 11.9167H18.5V15.5833H19.25H20V11.9167H19.25ZM19.25 15.5833V14.8333H17.4167V15.5833V16.3333H19.25V15.5833ZM13.75 15.5833V14.8333H8.25V15.5833V16.3333H13.75V15.5833ZM2.75 10.0833V10.8333H16.5V10.0833V9.33333H2.75V10.0833ZM11 10.0833H11.75V5.5H11H10.25V10.0833H11Z" fill="#FDFBF9" fill-opacity="0.9"/>
</svg>
