<svg width="25" height="24" viewBox="0 0 25 24" fill="none" xmlns="http://www.w3.org/2000/svg">
<circle cx="7.33325" cy="17" r="2" stroke="#2F2B3D" stroke-opacity="0.9" stroke-width="1.5" stroke-linecap="round" stroke-linejoin="round"/>
<circle cx="17.3333" cy="17" r="2" stroke="#2F2B3D" stroke-opacity="0.9" stroke-width="1.5" stroke-linecap="round" stroke-linejoin="round"/>
<path d="M5.33325 17.75C5.74747 17.75 6.08325 17.4142 6.08325 17C6.08325 16.5858 5.74747 16.25 5.33325 16.25V17.75ZM3.33325 17H2.58325C2.58325 17.4142 2.91904 17.75 3.33325 17.75V17ZM3.33325 11L2.63689 10.7215C2.60146 10.81 2.58325 10.9046 2.58325 11H3.33325ZM5.33325 6V5.25C5.02657 5.25 4.75079 5.43671 4.63689 5.72146L5.33325 6ZM14.3333 6L14.9189 5.53148C14.7766 5.35357 14.5611 5.25 14.3333 5.25V6ZM18.3333 11L17.7476 11.4685C17.8899 11.6464 18.1054 11.75 18.3333 11.75V11ZM21.3333 17V17.75C21.7475 17.75 22.0833 17.4142 22.0833 17H21.3333ZM19.3333 16.25C18.919 16.25 18.5833 16.5858 18.5833 17C18.5833 17.4142 18.919 17.75 19.3333 17.75V16.25ZM15.3333 17.75C15.7475 17.75 16.0833 17.4142 16.0833 17C16.0833 16.5858 15.7475 16.25 15.3333 16.25V17.75ZM9.33325 16.25C8.91904 16.25 8.58325 16.5858 8.58325 17C8.58325 17.4142 8.91904 17.75 9.33325 17.75V16.25ZM3.33325 10.25C2.91904 10.25 2.58325 10.5858 2.58325 11C2.58325 11.4142 2.91904 11.75 3.33325 11.75V10.25ZM18.3333 11.75C18.7475 11.75 19.0833 11.4142 19.0833 11C19.0833 10.5858 18.7475 10.25 18.3333 10.25V11.75ZM11.5833 11C11.5833 11.4142 11.919 11.75 12.3333 11.75C12.7475 11.75 13.0833 11.4142 13.0833 11H11.5833ZM13.0833 6C13.0833 5.58579 12.7475 5.25 12.3333 5.25C11.919 5.25 11.5833 5.58579 11.5833 6H13.0833ZM5.33325 17V16.25H3.33325V17V17.75H5.33325V17ZM3.33325 17H4.08325V11H3.33325H2.58325V17H3.33325ZM3.33325 11L4.02961 11.2785L6.02961 6.27854L5.33325 6L4.63689 5.72146L2.63689 10.7215L3.33325 11ZM5.33325 6V6.75H14.3333V6V5.25H5.33325V6ZM14.3333 6L13.7476 6.46852L17.7476 11.4685L18.3333 11L18.9189 10.5315L14.9189 5.53148L14.3333 6ZM18.3333 11V11.75H19.3333V11V10.25H18.3333V11ZM19.3333 11V11.75C20.0236 11.75 20.5833 12.3096 20.5833 13H21.3333H22.0833C22.0833 11.4812 20.852 10.25 19.3333 10.25V11ZM21.3333 13H20.5833V17H21.3333H22.0833V13H21.3333ZM21.3333 17V16.25H19.3333V17V17.75H21.3333V17ZM15.3333 17V16.25H9.33325V17V17.75H15.3333V17ZM3.33325 11V11.75H18.3333V11V10.25H3.33325V11ZM12.3333 11H13.0833V6H12.3333H11.5833V11H12.3333Z" fill="#2F2B3D" fill-opacity="0.9"/>
</svg>
