<svg width="46" height="40" viewBox="0 0 46 40" fill="none" xmlns="http://www.w3.org/2000/svg">
<rect x="11" y="8" width="24" height="24" stroke="#FDFBF9"/>
<path d="M27.25 18C27.25 14.5482 24.4518 11.75 21 11.75C17.5482 11.75 14.75 14.5482 14.75 18C14.75 21.4518 17.5482 24.25 21 24.25C24.4518 24.25 27.25 21.4518 27.25 18ZM28.75 18C28.75 22.2802 25.2802 25.75 21 25.75C16.7198 25.75 13.25 22.2802 13.25 18C13.25 13.7198 16.7198 10.25 21 10.25C25.2802 10.25 28.75 13.7198 28.75 18Z" fill="#FDFBF9"/>
<path d="M25.4697 22.4697C25.7443 22.1951 26.179 22.1777 26.4736 22.418L26.5303 22.4697L32.5303 28.4697L32.582 28.5264C32.8223 28.8209 32.8049 29.2557 32.5303 29.5303C32.2557 29.8049 31.8209 29.8223 31.5264 29.582L31.4697 29.5303L25.4697 23.5303L25.418 23.4736C25.1777 23.179 25.1951 22.7443 25.4697 22.4697Z" fill="#FDFBF9"/>
<path d="M21 14.5H21.01" stroke="#FDFBF9" stroke-width="1.5" stroke-linecap="round" stroke-linejoin="round"/>
<path d="M20 17.5H21V21.5H22" stroke="#FDFBF9" stroke-width="1.5" stroke-linecap="round" stroke-linejoin="round"/>
</svg>
