<svg width="46" height="38" viewBox="0 0 46 38" fill="none" xmlns="http://www.w3.org/2000/svg">
<path d="M23.75 10C23.75 9.58579 23.4142 9.25 23 9.25C22.5858 9.25 22.25 9.58579 22.25 10H23.75ZM22.25 13C22.25 13.4142 22.5858 13.75 23 13.75C23.4142 13.75 23.75 13.4142 23.75 13H22.25ZM23.75 25C23.75 24.5858 23.4142 24.25 23 24.25C22.5858 24.25 22.25 24.5858 22.25 25H23.75ZM22.25 28C22.25 28.4142 22.5858 28.75 23 28.75C23.4142 28.75 23.75 28.4142 23.75 28H22.25ZM23 10H22.25V13H23H23.75V10H23ZM23 25H22.25V28H23H23.75V25H23Z" fill="#FDFBF9"/>
<path d="M27.7 15C27.2928 13.8446 26.2239 13.0528 25 13H21C19.3431 13 18 14.3431 18 16C18 17.6569 19.3431 19 21 19H25C26.6569 19 28 20.3431 28 22C28 23.6569 26.6569 25 25 25H21C19.7761 24.9472 18.7072 24.1554 18.3 23" stroke="#FDFBF9" stroke-width="1.5" stroke-linecap="round" stroke-linejoin="round"/>
</svg>
