<svg width="38" height="39" viewBox="0 0 38 39" fill="none" xmlns="http://www.w3.org/2000/svg">
<path d="M0 6.2085C0 2.89479 2.68629 0.208496 6 0.208496H32C35.3137 0.208496 38 2.89479 38 6.2085V32.2085C38 35.5222 35.3137 38.2085 32 38.2085H6C2.68629 38.2085 0 35.5222 0 32.2085V6.2085Z" fill="#808390" fill-opacity="0.16"/>
<path d="M23.3084 15.5418C22.9351 14.4827 21.9553 13.7569 20.8334 13.7085H17.1667C15.6479 13.7085 14.4167 14.9397 14.4167 16.4585C14.4167 17.9773 15.6479 19.2085 17.1667 19.2085H20.8334C22.3521 19.2085 23.5834 20.4397 23.5834 21.9585C23.5834 23.4773 22.3521 24.7085 20.8334 24.7085H17.1667C16.0447 24.6601 15.065 23.9343 14.6917 22.8752" stroke="#808390" stroke-width="1.5" stroke-linecap="round" stroke-linejoin="round"/>
<path d="M19.75 10.9585C19.75 10.5443 19.4142 10.2085 19 10.2085C18.5858 10.2085 18.25 10.5443 18.25 10.9585H19.75ZM18.25 13.7085C18.25 14.1227 18.5858 14.4585 19 14.4585C19.4142 14.4585 19.75 14.1227 19.75 13.7085H18.25ZM19.75 24.7085C19.75 24.2943 19.4142 23.9585 19 23.9585C18.5858 23.9585 18.25 24.2943 18.25 24.7085H19.75ZM18.25 27.4585C18.25 27.8727 18.5858 28.2085 19 28.2085C19.4142 28.2085 19.75 27.8727 19.75 27.4585H18.25ZM19 10.9585H18.25V13.7085H19H19.75V10.9585H19ZM19 24.7085H18.25V27.4585H19H19.75V24.7085H19Z" fill="#808390"/>
</svg>
