<svg width="41" height="40" viewBox="0 0 41 40" fill="none" xmlns="http://www.w3.org/2000/svg">
<path d="M0.25 6C0.25 2.68629 2.93629 0 6.25 0H34.25C37.5637 0 40.25 2.68629 40.25 6V34C40.25 37.3137 37.5637 40 34.25 40H6.25C2.93629 40 0.25 37.3137 0.25 34V6Z" fill="#076271" fill-opacity="0.16"/>
<circle cx="15.25" cy="25" r="2" stroke="#076271" stroke-width="1.5" stroke-linecap="round" stroke-linejoin="round"/>
<circle cx="25.25" cy="25" r="2" stroke="#076271" stroke-width="1.5" stroke-linecap="round" stroke-linejoin="round"/>
<path d="M13.25 25.75C13.6642 25.75 14 25.4142 14 25C14 24.5858 13.6642 24.25 13.25 24.25V25.75ZM11.25 25H10.5C10.5 25.4142 10.8358 25.75 11.25 25.75V25ZM11.25 19L10.5536 18.7215C10.5182 18.81 10.5 18.9046 10.5 19H11.25ZM13.25 14V13.25C12.9433 13.25 12.6675 13.4367 12.5536 13.7215L13.25 14ZM22.25 14L22.8357 13.5315C22.6933 13.3536 22.4778 13.25 22.25 13.25V14ZM26.25 19L25.6643 19.4685C25.8067 19.6464 26.0222 19.75 26.25 19.75V19ZM29.25 25V25.75C29.6642 25.75 30 25.4142 30 25H29.25ZM27.25 24.25C26.8358 24.25 26.5 24.5858 26.5 25C26.5 25.4142 26.8358 25.75 27.25 25.75V24.25ZM23.25 25.75C23.6642 25.75 24 25.4142 24 25C24 24.5858 23.6642 24.25 23.25 24.25V25.75ZM17.25 24.25C16.8358 24.25 16.5 24.5858 16.5 25C16.5 25.4142 16.8358 25.75 17.25 25.75V24.25ZM11.25 18.25C10.8358 18.25 10.5 18.5858 10.5 19C10.5 19.4142 10.8358 19.75 11.25 19.75V18.25ZM26.25 19.75C26.6642 19.75 27 19.4142 27 19C27 18.5858 26.6642 18.25 26.25 18.25V19.75ZM19.5 19C19.5 19.4142 19.8358 19.75 20.25 19.75C20.6642 19.75 21 19.4142 21 19H19.5ZM21 14C21 13.5858 20.6642 13.25 20.25 13.25C19.8358 13.25 19.5 13.5858 19.5 14H21ZM13.25 25V24.25H11.25V25V25.75H13.25V25ZM11.25 25H12V19H11.25H10.5V25H11.25ZM11.25 19L11.9464 19.2785L13.9464 14.2785L13.25 14L12.5536 13.7215L10.5536 18.7215L11.25 19ZM13.25 14V14.75H22.25V14V13.25H13.25V14ZM22.25 14L21.6643 14.4685L25.6643 19.4685L26.25 19L26.8357 18.5315L22.8357 13.5315L22.25 14ZM26.25 19V19.75H27.25V19V18.25H26.25V19ZM27.25 19V19.75C27.9404 19.75 28.5 20.3096 28.5 21H29.25H30C30 19.4812 28.7688 18.25 27.25 18.25V19ZM29.25 21H28.5V25H29.25H30V21H29.25ZM29.25 25V24.25H27.25V25V25.75H29.25V25ZM23.25 25V24.25H17.25V25V25.75H23.25V25ZM11.25 19V19.75H26.25V19V18.25H11.25V19ZM20.25 19H21V14H20.25H19.5V19H20.25Z" fill="#076271"/>
</svg>
