<svg width="21" height="21" viewBox="0 0 21 21" fill="none" xmlns="http://www.w3.org/2000/svg">
<g clip-path="url(#clip0_1795_7954)">
<path d="M10.5001 8.68179V12.5545H15.8819C15.6456 13.8 14.9364 14.8546 13.8728 15.5636L17.1182 18.0818C19.0091 16.3364 20.1001 13.7728 20.1001 10.7273C20.1001 10.0183 20.0364 9.33638 19.9182 8.6819L10.5001 8.68179Z" fill="#4285F4"/>
<path d="M4.89563 12.4034L4.16366 12.9637L1.57271 14.9818C3.21816 18.2454 6.59064 20.5 10.4997 20.5C13.1996 20.5 15.4637 19.6091 17.1182 18.0818L13.8728 15.5636C12.9819 16.1636 11.8451 16.5273 10.4997 16.5273C7.89971 16.5273 5.69069 14.7728 4.89972 12.4091L4.89563 12.4034Z" fill="#34A853"/>
<path d="M1.57277 6.01819C0.89099 7.36359 0.500122 8.88179 0.500122 10.4999C0.500122 12.1181 0.890932 13.6364 1.57271 14.9818C1.57271 14.9908 4.9001 12.3999 4.9001 12.3999C4.7001 11.7999 4.58189 11.1636 4.58189 10.4998C4.58189 9.83612 4.7001 9.19979 4.9001 8.5998L1.57277 6.01819Z" fill="#FBBC05"/>
<path d="M10.4999 4.48182C11.9727 4.48182 13.2817 4.99089 14.3272 5.97272L17.1908 3.10912C15.4544 1.49097 13.1999 0.5 10.4999 0.5C6.59085 0.5 3.21822 2.74545 1.57277 6.01819L4.9001 8.5998C5.69096 6.23614 7.89992 4.48182 10.4999 4.48182Z" fill="#EA4335"/>
</g>
<defs>
<clipPath id="clip0_1795_7954">
<rect width="20" height="20" fill="white" transform="translate(0.500122 0.5)"/>
</clipPath>
</defs>
</svg>
