<svg width="38" height="39" viewBox="0 0 38 39" fill="none" xmlns="http://www.w3.org/2000/svg">
<path d="M0 6.2085C0 2.89479 2.68629 0.208496 6 0.208496H32C35.3137 0.208496 38 2.89479 38 6.2085V32.2085C38 35.5222 35.3137 38.2085 32 38.2085H6C2.68629 38.2085 0 35.5222 0 32.2085V6.2085Z" fill="#7367F0" fill-opacity="0.16"/>
<path d="M13.5 11.8752L14.2425 11.9812C14.2475 11.9461 14.25 11.9107 14.25 11.8752H13.5ZM11.6667 24.7085L10.9242 24.6024C10.9192 24.6376 10.9167 24.673 10.9167 24.7085H11.6667ZM15.15 25.6252V26.3752C15.4968 26.3752 15.7984 26.1374 15.8793 25.8002L15.15 25.6252ZM16.25 21.0418L16.9793 21.2169C16.9834 21.1997 16.9869 21.1825 16.9898 21.1651L16.25 21.0418ZM24.4219 14.162C24.0649 13.952 23.6052 14.0712 23.3952 14.4282C23.1852 14.7853 23.3044 15.2449 23.6614 15.4549L24.4219 14.162ZM19.3667 23.3335V22.5835C19 22.5835 18.6871 22.8486 18.6269 23.2102L19.3667 23.3335ZM18.8167 26.6335L19.5515 26.7833C19.5533 26.7745 19.555 26.7657 19.5565 26.7568L18.8167 26.6335ZM17.9 27.3668L17.9151 26.617C17.9101 26.6169 17.905 26.6168 17.9 26.6168V27.3668ZM15.425 27.3668V26.6168C15.4199 26.6168 15.4149 26.6169 15.4098 26.617L15.425 27.3668ZM14.9667 26.8168L15.7015 26.967C15.7045 26.9524 15.707 26.9377 15.7091 26.9229L14.9667 26.8168ZM15.8925 25.6396C15.951 25.2295 15.6661 24.8496 15.2561 24.791C14.846 24.7325 14.4661 25.0174 14.4075 25.4274L15.8925 25.6396ZM17.1667 20.1252V20.8752H19.4584V20.1252V19.3752H17.1667V20.1252ZM19.4584 20.1252V20.8752C20.8481 20.8752 22.1751 20.1878 23.1397 19.2232C24.1044 18.2586 24.7917 16.9316 24.7917 15.5418H24.0417H23.2917C23.2917 16.4437 22.8332 17.4084 22.0791 18.1625C21.3249 18.9167 20.3603 19.3752 19.4584 19.3752V20.1252ZM24.0417 15.5418H24.7917C24.7917 14.007 24.3029 12.6593 23.3498 11.6924C22.395 10.7238 21.0443 10.2085 19.4584 10.2085V10.9585V11.7085C20.714 11.7085 21.655 12.1099 22.2815 12.7454C22.9097 13.3827 23.2917 14.3266 23.2917 15.5418H24.0417ZM19.4584 10.9585V10.2085H14.4167V10.9585V11.7085H19.4584V10.9585ZM14.4167 10.9585V10.2085C13.9436 10.2085 13.5333 10.4375 13.2561 10.7146C12.979 10.9918 12.75 11.4021 12.75 11.8752H13.5H14.25C14.25 11.8854 14.2477 11.8787 14.2584 11.8557C14.2692 11.8328 14.2885 11.8036 14.3168 11.7753C14.3452 11.7469 14.3743 11.7276 14.3973 11.7169C14.4202 11.7062 14.427 11.7085 14.4167 11.7085V10.9585ZM13.5 11.8752L12.7576 11.7691L10.9242 24.6024L11.6667 24.7085L12.4091 24.8146L14.2425 11.9812L13.5 11.8752ZM11.6667 24.7085H10.9167C10.9167 25.1816 11.1457 25.5919 11.4228 25.869C11.6999 26.1462 12.1103 26.3752 12.5834 26.3752V25.6252V24.8752C12.5936 24.8752 12.5869 24.8774 12.5639 24.8667C12.541 24.856 12.5118 24.8367 12.4835 24.8084C12.4551 24.78 12.4358 24.7509 12.4251 24.7279C12.4144 24.705 12.4167 24.6982 12.4167 24.7085H11.6667ZM12.5834 25.6252V26.3752H15.15V25.6252V24.8752H12.5834V25.6252ZM15.15 25.6252L15.8793 25.8002L16.9793 21.2169L16.25 21.0418L15.5207 20.8668L14.4207 25.4501L15.15 25.6252ZM16.25 21.0418L16.9898 21.1651C17.0221 20.9713 17.0734 20.9012 17.0861 20.8876C17.0893 20.8841 17.0888 20.885 17.0894 20.8848C17.0916 20.8838 17.1133 20.8752 17.1667 20.8752V20.1252V19.3752C16.7069 19.3752 16.2932 19.5371 15.9869 19.8669C15.7016 20.1741 15.5696 20.5623 15.5102 20.9185L16.25 21.0418ZM24.0417 14.8085L23.6614 15.4549C24.9379 16.2058 25.5833 17.5734 25.5833 19.2085H26.3333H27.0833C27.0833 17.1769 26.2621 15.2445 24.4219 14.162L24.0417 14.8085ZM26.3333 19.2085H25.5833C25.5833 20.0937 25.1405 20.9304 24.4098 21.5636C23.6771 22.1987 22.7029 22.5835 21.75 22.5835V23.3335V24.0835C23.0888 24.0835 24.4063 23.5516 25.3922 22.6971C26.3803 21.8408 27.0833 20.615 27.0833 19.2085H26.3333ZM21.75 23.3335V22.5835H19.3667V23.3335V24.0835H21.75V23.3335ZM19.3667 23.3335L18.6269 23.2102L18.0769 26.5102L18.8167 26.6335L19.5565 26.7568L20.1065 23.4568L19.3667 23.3335ZM18.8167 26.6335L18.0818 26.4836C18.0657 26.5625 17.9956 26.6186 17.9151 26.617L17.9 27.3668L17.8849 28.1167C18.6895 28.1329 19.3907 27.5719 19.5515 26.7833L18.8167 26.6335ZM17.9 27.3668V26.6168H15.425V27.3668V28.1168H17.9V27.3668ZM15.425 27.3668L15.4098 26.617C15.4984 26.6152 15.583 26.6538 15.6398 26.7219L15.0636 27.202L14.4874 27.6821C14.7225 27.9642 15.0731 28.1241 15.4402 28.1167L15.425 27.3668ZM15.0636 27.202L15.6398 26.7219C15.6965 26.79 15.7192 26.8801 15.7015 26.967L14.9667 26.8168L14.2318 26.6667C14.1583 27.0264 14.2524 27.4001 14.4874 27.6821L15.0636 27.202ZM14.9667 26.8168L15.7091 26.9229L15.8925 25.6396L15.15 25.5335L14.4075 25.4274L14.2242 26.7108L14.9667 26.8168Z" fill="#076271"/>
</svg>
