<svg width="41" height="40" viewBox="0 0 41 40" fill="none" xmlns="http://www.w3.org/2000/svg">
<path d="M0.75 6C0.75 2.68629 3.43629 0 6.75 0H34.75C38.0637 0 40.75 2.68629 40.75 6V34C40.75 37.3137 38.0637 40 34.75 40H6.75C3.43629 40 0.75 37.3137 0.75 34V6Z" fill="#28C76F" fill-opacity="0.16"/>
<path d="M25.45 16C25.0428 14.8446 23.9739 14.0528 22.75 14H18.75C17.0931 14 15.75 15.3431 15.75 17C15.75 18.6569 17.0931 20 18.75 20H22.75C24.4069 20 25.75 21.3431 25.75 23C25.75 24.6569 24.4069 26 22.75 26H18.75C17.5261 25.9472 16.4572 25.1554 16.05 24" stroke="#28C76F" stroke-width="1.5" stroke-linecap="round" stroke-linejoin="round"/>
<path d="M21.5 11C21.5 10.5858 21.1642 10.25 20.75 10.25C20.3358 10.25 20 10.5858 20 11H21.5ZM20 14C20 14.4142 20.3358 14.75 20.75 14.75C21.1642 14.75 21.5 14.4142 21.5 14H20ZM21.5 26C21.5 25.5858 21.1642 25.25 20.75 25.25C20.3358 25.25 20 25.5858 20 26H21.5ZM20 29C20 29.4142 20.3358 29.75 20.75 29.75C21.1642 29.75 21.5 29.4142 21.5 29H20ZM20.75 11H20V14H20.75H21.5V11H20.75ZM20.75 26H20V29H20.75H21.5V26H20.75Z" fill="#28C76F"/>
</svg>
