<svg width="364" height="23" viewBox="0 0 364 23" fill="none" xmlns="http://www.w3.org/2000/svg">
<path d="M135.5 6.5L130.5 11.5L135.5 16.5" stroke="#076271" stroke-width="1.5" stroke-linecap="round" stroke-linejoin="round"/>
<path d="M150.139 16.5V6H155.074C155.784 6 156.404 6.12 156.934 6.36C157.464 6.6 157.879 6.94 158.179 7.38C158.479 7.81 158.629 8.31 158.629 8.88C158.629 9.34 158.509 9.765 158.269 10.155C158.039 10.535 157.724 10.845 157.324 11.085C157.834 11.325 158.239 11.65 158.539 12.06C158.839 12.47 158.989 12.935 158.989 13.455C158.989 14.055 158.834 14.585 158.524 15.045C158.224 15.505 157.794 15.865 157.234 16.125C156.684 16.375 156.044 16.5 155.314 16.5H150.139ZM152.314 10.29H154.939C155.409 10.29 155.779 10.18 156.049 9.96C156.329 9.73 156.469 9.425 156.469 9.045C156.469 8.665 156.329 8.365 156.049 8.145C155.779 7.915 155.409 7.8 154.939 7.8H152.314V10.29ZM152.314 14.7H155.149C155.649 14.7 156.049 14.58 156.349 14.34C156.649 14.09 156.799 13.76 156.799 13.35C156.799 12.93 156.649 12.6 156.349 12.36C156.049 12.11 155.649 11.985 155.149 11.985H152.314V14.7ZM162.865 16.635C162.305 16.635 161.81 16.535 161.38 16.335C160.95 16.125 160.615 15.84 160.375 15.48C160.135 15.12 160.015 14.705 160.015 14.235C160.015 13.485 160.295 12.905 160.855 12.495C161.425 12.075 162.205 11.865 163.195 11.865C163.875 11.865 164.515 11.97 165.115 12.18V11.61C165.115 11.16 164.975 10.82 164.695 10.59C164.415 10.36 164.005 10.245 163.465 10.245C163.135 10.245 162.78 10.3 162.4 10.41C162.02 10.51 161.58 10.67 161.08 10.89L160.33 9.375C160.95 9.095 161.54 8.885 162.1 8.745C162.67 8.605 163.24 8.535 163.81 8.535C164.86 8.535 165.675 8.79 166.255 9.3C166.845 9.8 167.14 10.51 167.14 11.43V16.5H165.115V15.945C164.795 16.185 164.45 16.36 164.08 16.47C163.71 16.58 163.305 16.635 162.865 16.635ZM161.965 14.19C161.965 14.49 162.095 14.73 162.355 14.91C162.615 15.08 162.96 15.165 163.39 15.165C163.73 15.165 164.045 15.125 164.335 15.045C164.625 14.955 164.885 14.825 165.115 14.655V13.515C164.865 13.415 164.605 13.34 164.335 13.29C164.065 13.24 163.775 13.215 163.465 13.215C162.995 13.215 162.625 13.305 162.355 13.485C162.095 13.655 161.965 13.89 161.965 14.19ZM172.431 16.65C171.661 16.65 170.966 16.475 170.346 16.125C169.726 15.765 169.236 15.28 168.876 14.67C168.516 14.05 168.336 13.36 168.336 12.6C168.336 11.83 168.516 11.14 168.876 10.53C169.236 9.92 169.726 9.435 170.346 9.075C170.966 8.715 171.661 8.535 172.431 8.535C173.051 8.535 173.641 8.655 174.201 8.895C174.771 9.135 175.261 9.48 175.671 9.93L174.411 11.265C174.121 10.945 173.816 10.71 173.496 10.56C173.186 10.4 172.846 10.32 172.476 10.32C172.076 10.32 171.716 10.42 171.396 10.62C171.086 10.82 170.836 11.09 170.646 11.43C170.466 11.77 170.376 12.16 170.376 12.6C170.376 13.02 170.466 13.405 170.646 13.755C170.836 14.095 171.096 14.365 171.426 14.565C171.756 14.755 172.121 14.85 172.521 14.85C172.871 14.85 173.196 14.78 173.496 14.64C173.806 14.49 174.101 14.27 174.381 13.98L175.611 15.27C175.211 15.7 174.731 16.04 174.171 16.29C173.611 16.53 173.031 16.65 172.431 16.65ZM176.679 16.5V6L178.734 5.655V11.97L182.109 8.685H184.434L180.744 12.27L184.659 16.5H182.034L178.734 12.93V16.5H176.679ZM191.927 16.62C191.057 16.62 190.397 16.425 189.947 16.035C189.507 15.635 189.287 15.055 189.287 14.295V10.395H187.682V8.685H189.287V6.69L191.342 6.225V8.685H193.577V10.395H191.342V13.875C191.342 14.235 191.422 14.495 191.582 14.655C191.742 14.805 192.022 14.88 192.422 14.88C192.622 14.88 192.802 14.87 192.962 14.85C193.132 14.82 193.317 14.77 193.517 14.7V16.395C193.307 16.465 193.042 16.52 192.722 16.56C192.412 16.6 192.147 16.62 191.927 16.62ZM198.302 16.65C197.522 16.65 196.817 16.47 196.187 16.11C195.557 15.75 195.057 15.265 194.687 14.655C194.317 14.045 194.132 13.36 194.132 12.6C194.132 11.84 194.312 11.155 194.672 10.545C195.042 9.925 195.542 9.435 196.172 9.075C196.812 8.715 197.522 8.535 198.302 8.535C199.082 8.535 199.787 8.715 200.417 9.075C201.057 9.435 201.557 9.925 201.917 10.545C202.287 11.155 202.472 11.84 202.472 12.6C202.472 13.36 202.287 14.045 201.917 14.655C201.557 15.265 201.062 15.75 200.432 16.11C199.802 16.47 199.092 16.65 198.302 16.65ZM198.302 14.865C198.712 14.865 199.077 14.765 199.397 14.565C199.727 14.365 199.987 14.095 200.177 13.755C200.377 13.405 200.477 13.02 200.477 12.6C200.477 12.17 200.377 11.785 200.177 11.445C199.987 11.105 199.727 10.835 199.397 10.635C199.077 10.425 198.712 10.32 198.302 10.32C197.902 10.32 197.537 10.425 197.207 10.635C196.877 10.835 196.617 11.105 196.427 11.445C196.237 11.785 196.142 12.17 196.142 12.6C196.142 13.02 196.237 13.405 196.427 13.755C196.617 14.095 196.877 14.365 197.207 14.565C197.537 14.765 197.902 14.865 198.302 14.865ZM206.752 16.5V6L208.807 5.655V16.5H206.752ZM214.224 16.65C213.444 16.65 212.739 16.47 212.109 16.11C211.479 15.75 210.979 15.265 210.609 14.655C210.239 14.045 210.054 13.36 210.054 12.6C210.054 11.84 210.234 11.155 210.594 10.545C210.964 9.925 211.464 9.435 212.094 9.075C212.734 8.715 213.444 8.535 214.224 8.535C215.004 8.535 215.709 8.715 216.339 9.075C216.979 9.435 217.479 9.925 217.839 10.545C218.209 11.155 218.394 11.84 218.394 12.6C218.394 13.36 218.209 14.045 217.839 14.655C217.479 15.265 216.984 15.75 216.354 16.11C215.724 16.47 215.014 16.65 214.224 16.65ZM214.224 14.865C214.634 14.865 214.999 14.765 215.319 14.565C215.649 14.365 215.909 14.095 216.099 13.755C216.299 13.405 216.399 13.02 216.399 12.6C216.399 12.17 216.299 11.785 216.099 11.445C215.909 11.105 215.649 10.835 215.319 10.635C214.999 10.425 214.634 10.32 214.224 10.32C213.824 10.32 213.459 10.425 213.129 10.635C212.799 10.835 212.539 11.105 212.349 11.445C212.159 11.785 212.064 12.17 212.064 12.6C212.064 13.02 212.159 13.405 212.349 13.755C212.539 14.095 212.799 14.365 213.129 14.565C213.459 14.765 213.824 14.865 214.224 14.865ZM223.588 19.71C222.988 19.71 222.408 19.645 221.848 19.515C221.288 19.395 220.783 19.22 220.333 18.99L221.053 17.4C221.483 17.61 221.903 17.765 222.313 17.865C222.723 17.965 223.133 18.015 223.543 18.015C224.153 18.015 224.613 17.885 224.923 17.625C225.243 17.365 225.403 16.975 225.403 16.455V15.84C224.763 16.31 224.048 16.545 223.258 16.545C222.518 16.545 221.848 16.37 221.248 16.02C220.658 15.66 220.183 15.175 219.823 14.565C219.473 13.955 219.298 13.28 219.298 12.54C219.298 11.8 219.473 11.13 219.823 10.53C220.183 9.93 220.668 9.455 221.278 9.105C221.888 8.745 222.568 8.565 223.318 8.565C223.698 8.565 224.068 8.62 224.428 8.73C224.788 8.84 225.123 8.995 225.433 9.195V8.685H227.458V16.485C227.458 17.515 227.123 18.31 226.453 18.87C225.793 19.43 224.838 19.71 223.588 19.71ZM223.573 14.805C223.953 14.805 224.298 14.745 224.608 14.625C224.918 14.495 225.183 14.315 225.403 14.085V11.025C225.183 10.805 224.913 10.635 224.593 10.515C224.283 10.385 223.948 10.32 223.588 10.32C223.158 10.32 222.773 10.42 222.433 10.62C222.093 10.81 221.823 11.075 221.623 11.415C221.423 11.745 221.323 12.12 221.323 12.54C221.323 12.97 221.418 13.355 221.608 13.695C221.808 14.035 222.078 14.305 222.418 14.505C222.768 14.705 223.153 14.805 223.573 14.805ZM229.062 16.5V8.685H231.117V16.5H229.062ZM230.082 7.755C229.762 7.755 229.487 7.64 229.257 7.41C229.027 7.18 228.912 6.905 228.912 6.585C228.912 6.255 229.027 5.98 229.257 5.76C229.487 5.53 229.762 5.415 230.082 5.415C230.412 5.415 230.687 5.53 230.907 5.76C231.137 5.98 231.252 6.255 231.252 6.585C231.252 6.905 231.137 7.18 230.907 7.41C230.687 7.64 230.412 7.755 230.082 7.755ZM232.724 16.5V8.685H234.779V9.33C235.369 8.8 236.099 8.535 236.969 8.535C237.579 8.535 238.114 8.67 238.574 8.94C239.044 9.2 239.409 9.565 239.669 10.035C239.929 10.495 240.059 11.035 240.059 11.655V16.5H238.004V11.955C238.004 11.445 237.859 11.045 237.569 10.755C237.279 10.455 236.884 10.305 236.384 10.305C236.034 10.305 235.724 10.375 235.454 10.515C235.184 10.645 234.959 10.835 234.779 11.085V16.5H232.724Z" fill="#076271"/>
</svg>
