<svg width="46" height="38" viewBox="0 0 46 38" fill="none" xmlns="http://www.w3.org/2000/svg">
<path fill-rule="evenodd" clip-rule="evenodd" d="M21.4646 11.9573C21.8551 10.3476 24.1449 10.3476 24.5354 11.9573C24.6543 12.4477 25.0002 12.8519 25.4664 13.0451C25.9327 13.2383 26.4631 13.1971 26.894 12.9344C28.3084 12.0727 29.9282 13.6916 29.0665 15.1069C28.8042 15.5376 28.7631 16.0677 28.9561 16.5336C29.149 16.9995 29.5527 17.3454 30.0428 17.4646C31.6524 17.8551 31.6524 20.1449 30.0428 20.5354C29.5523 20.6543 29.1481 21.0002 28.9549 21.4664C28.7617 21.9327 28.8029 22.4631 29.0656 22.894C29.9272 24.3084 28.3084 25.9282 26.8931 25.0665C26.4624 24.8042 25.9323 24.7631 25.4664 24.9561C25.0005 25.149 24.6546 25.5527 24.5354 26.0428C24.1449 27.6524 21.8551 27.6524 21.4646 26.0428C21.3457 25.5523 20.9998 25.1481 20.5336 24.9549C20.0673 24.7617 19.5369 24.8029 19.106 25.0656C17.6916 25.9272 16.0718 24.3084 16.9335 22.8931C17.1958 22.4624 17.2369 21.9323 17.0439 21.4664C16.851 21.0005 16.4473 20.6546 15.9573 20.5354C14.3476 20.1449 14.3476 17.8551 15.9573 17.4646C16.4477 17.3457 16.8519 16.9998 17.0451 16.5336C17.2383 16.0673 17.1971 15.5369 16.9344 15.106C16.0727 13.6916 17.6916 12.0718 19.1069 12.9335C20.0236 13.4908 21.2116 12.9977 21.4646 11.9573Z" stroke="#FDFBF9" stroke-width="1.5" stroke-linecap="round" stroke-linejoin="round"/>
<circle cx="23" cy="19" r="2.75" stroke="#FDFBF9" stroke-width="1.5" stroke-linecap="round" stroke-linejoin="round"/>
</svg>
