<svg width="46" height="40" viewBox="0 0 46 40" fill="none" xmlns="http://www.w3.org/2000/svg">
<circle cx="23" cy="20" r="5" stroke="#FDFBF9" stroke-width="1.5" stroke-linecap="round" stroke-linejoin="round"/>
<path d="M22.25 15C22.25 15.4142 22.5858 15.75 23 15.75C23.4142 15.75 23.75 15.4142 23.75 15H22.25ZM23.75 11C23.75 10.5858 23.4142 10.25 23 10.25C22.5858 10.25 22.25 10.5858 22.25 11H23.75ZM22 10.25C21.5858 10.25 21.25 10.5858 21.25 11C21.25 11.4142 21.5858 11.75 22 11.75V10.25ZM24 11.75C24.4142 11.75 24.75 11.4142 24.75 11C24.75 10.5858 24.4142 10.25 24 10.25V11.75ZM23 15H23.75V11H23H22.25V15H23ZM22 11V11.75H24V11V10.25H22V11Z" fill="#FDFBF9"/>
<path d="M26.0051 15.9341C25.7122 16.227 25.7122 16.7019 26.0051 16.9948C26.2979 17.2877 26.7728 17.2877 27.0657 16.9948L26.0051 15.9341ZM29.8941 14.1664C30.187 13.8735 30.187 13.3986 29.8941 13.1057C29.6012 12.8128 29.1264 12.8128 28.8335 13.1057L29.8941 14.1664ZM29.187 12.3987C28.8941 12.1058 28.4193 12.1058 28.1264 12.3987C27.8335 12.6916 27.8335 13.1664 28.1264 13.4593L29.187 12.3987ZM29.5406 14.8735C29.8335 15.1664 30.3084 15.1664 30.6012 14.8735C30.8941 14.5806 30.8941 14.1058 30.6012 13.8129L29.5406 14.8735ZM26.5354 16.4645L27.0657 16.9948L29.8941 14.1664L29.3638 13.636L28.8335 13.1057L26.0051 15.9341L26.5354 16.4645ZM28.6567 12.929L28.1264 13.4593L29.5406 14.8735L30.0709 14.3432L30.6012 13.8129L29.187 12.3987L28.6567 12.929Z" fill="#FDFBF9"/>
<path d="M28 19.25C27.5858 19.25 27.25 19.5858 27.25 20C27.25 20.4142 27.5858 20.75 28 20.75V19.25ZM32 20.75C32.4142 20.75 32.75 20.4142 32.75 20C32.75 19.5858 32.4142 19.25 32 19.25V20.75ZM32.75 19C32.75 18.5858 32.4142 18.25 32 18.25C31.5858 18.25 31.25 18.5858 31.25 19H32.75ZM31.25 21C31.25 21.4142 31.5858 21.75 32 21.75C32.4142 21.75 32.75 21.4142 32.75 21H31.25ZM28 20V20.75H32V20V19.25H28V20ZM32 19H31.25V21H32H32.75V19H32Z" fill="#FDFBF9"/>
<path d="M27.0659 23.0051C26.773 22.7122 26.2981 22.7122 26.0052 23.0051C25.7123 23.2979 25.7123 23.7728 26.0052 24.0657L27.0659 23.0051ZM28.8336 26.8941C29.1265 27.187 29.6014 27.187 29.8943 26.8941C30.1872 26.6012 30.1872 26.1264 29.8943 25.8335L28.8336 26.8941ZM30.6013 26.187C30.8942 25.8941 30.8942 25.4193 30.6013 25.1264C30.3084 24.8335 29.8336 24.8335 29.5407 25.1264L30.6013 26.187ZM28.1265 26.5406C27.8336 26.8335 27.8336 27.3084 28.1265 27.6012C28.4194 27.8941 28.8942 27.8941 29.1871 27.6012L28.1265 26.5406ZM26.5355 23.5354L26.0052 24.0657L28.8336 26.8941L29.364 26.3638L29.8943 25.8335L27.0659 23.0051L26.5355 23.5354ZM30.071 25.6567L29.5407 25.1264L28.1265 26.5406L28.6568 27.0709L29.1871 27.6012L30.6013 26.187L30.071 25.6567Z" fill="#FDFBF9"/>
<path d="M23.75 25C23.75 24.5858 23.4142 24.25 23 24.25C22.5858 24.25 22.25 24.5858 22.25 25H23.75ZM22.25 29C22.25 29.4142 22.5858 29.75 23 29.75C23.4142 29.75 23.75 29.4142 23.75 29H22.25ZM24 29.75C24.4142 29.75 24.75 29.4142 24.75 29C24.75 28.5858 24.4142 28.25 24 28.25V29.75ZM22 28.25C21.5858 28.25 21.25 28.5858 21.25 29C21.25 29.4142 21.5858 29.75 22 29.75V28.25ZM23 25H22.25V29H23H23.75V25H23ZM24 29V28.25H22V29V29.75H24V29Z" fill="#FDFBF9"/>
<path d="M19.9949 24.0659C20.2878 23.773 20.2878 23.2981 19.9949 23.0052C19.7021 22.7123 19.2272 22.7123 18.9343 23.0052L19.9949 24.0659ZM16.1059 25.8336C15.813 26.1265 15.813 26.6014 16.1059 26.8943C16.3988 27.1872 16.8736 27.1872 17.1665 26.8943L16.1059 25.8336ZM16.813 27.6013C17.1059 27.8942 17.5807 27.8942 17.8736 27.6013C18.1665 27.3084 18.1665 26.8336 17.8736 26.5407L16.813 27.6013ZM16.4594 25.1265C16.1665 24.8336 15.6916 24.8336 15.3988 25.1265C15.1059 25.4194 15.1059 25.8942 15.3988 26.1871L16.4594 25.1265ZM19.4646 23.5355L18.9343 23.0052L16.1059 25.8336L16.6362 26.364L17.1665 26.8943L19.9949 24.0659L19.4646 23.5355ZM17.3433 27.071L17.8736 26.5407L16.4594 25.1265L15.9291 25.6568L15.3988 26.1871L16.813 27.6013L17.3433 27.071Z" fill="#FDFBF9"/>
<path d="M18 20.75C18.4142 20.75 18.75 20.4142 18.75 20C18.75 19.5858 18.4142 19.25 18 19.25V20.75ZM14 19.25C13.5858 19.25 13.25 19.5858 13.25 20C13.25 20.4142 13.5858 20.75 14 20.75V19.25ZM13.25 21C13.25 21.4142 13.5858 21.75 14 21.75C14.4142 21.75 14.75 21.4142 14.75 21H13.25ZM14.75 19C14.75 18.5858 14.4142 18.25 14 18.25C13.5858 18.25 13.25 18.5858 13.25 19H14.75ZM18 20V19.25H14V20V20.75H18V20ZM14 21H14.75V19H14H13.25V21H14Z" fill="#FDFBF9"/>
<path d="M18.9341 16.9949C19.227 17.2878 19.7019 17.2878 19.9948 16.9949C20.2877 16.7021 20.2877 16.2272 19.9948 15.9343L18.9341 16.9949ZM17.1664 13.1059C16.8735 12.813 16.3986 12.813 16.1057 13.1059C15.8128 13.3988 15.8128 13.8736 16.1057 14.1665L17.1664 13.1059ZM15.3987 13.813C15.1058 14.1059 15.1058 14.5807 15.3987 14.8736C15.6916 15.1665 16.1664 15.1665 16.4593 14.8736L15.3987 13.813ZM17.8735 13.4594C18.1664 13.1665 18.1664 12.6916 17.8735 12.3988C17.5806 12.1059 17.1058 12.1059 16.8129 12.3988L17.8735 13.4594ZM19.4645 16.4646L19.9948 15.9343L17.1664 13.1059L16.636 13.6362L16.1057 14.1665L18.9341 16.9949L19.4645 16.4646ZM15.929 14.3433L16.4593 14.8736L17.8735 13.4594L17.3432 12.9291L16.8129 12.3988L15.3987 13.813L15.929 14.3433Z" fill="#FDFBF9"/>
</svg>
