<svg width="46" height="38" viewBox="0 0 46 38" fill="none" xmlns="http://www.w3.org/2000/svg">
<ellipse cx="18.4166" cy="23.5833" rx="1.83333" ry="1.83333" stroke="#FDFBF9" stroke-opacity="0.9" stroke-width="1.5" stroke-linecap="round" stroke-linejoin="round"/>
<circle cx="27.5833" cy="23.5833" r="1.83333" stroke="#FDFBF9" stroke-opacity="0.9" stroke-width="1.5" stroke-linecap="round" stroke-linejoin="round"/>
<path d="M16.5833 24.3333C16.9975 24.3333 17.3333 23.9975 17.3333 23.5833C17.3333 23.1691 16.9975 22.8333 16.5833 22.8333V24.3333ZM14.75 23.5833H14C14 23.9975 14.3358 24.3333 14.75 24.3333V23.5833ZM14.75 18.0833L14.0536 17.8048C14.0182 17.8934 14 17.9879 14 18.0833H14.75ZM16.5833 13.5V12.75C16.2767 12.75 16.0009 12.9367 15.887 13.2215L16.5833 13.5ZM24.8333 13.5L25.419 13.0315C25.2767 12.8536 25.0612 12.75 24.8333 12.75V13.5ZM28.5 18.0833L27.9143 18.5519C28.0567 18.7298 28.2722 18.8333 28.5 18.8333V18.0833ZM31.25 23.5833V24.3333C31.6642 24.3333 32 23.9975 32 23.5833H31.25ZM29.4167 22.8333C29.0025 22.8333 28.6667 23.1691 28.6667 23.5833C28.6667 23.9975 29.0025 24.3333 29.4167 24.3333V22.8333ZM25.75 24.3333C26.1642 24.3333 26.5 23.9975 26.5 23.5833C26.5 23.1691 26.1642 22.8333 25.75 22.8333V24.3333ZM20.25 22.8333C19.8358 22.8333 19.5 23.1691 19.5 23.5833C19.5 23.9975 19.8358 24.3333 20.25 24.3333V22.8333ZM14.75 17.3333C14.3358 17.3333 14 17.6691 14 18.0833C14 18.4975 14.3358 18.8333 14.75 18.8333V17.3333ZM28.5 18.8333C28.9142 18.8333 29.25 18.4975 29.25 18.0833C29.25 17.6691 28.9142 17.3333 28.5 17.3333V18.8333ZM22.25 18.0833C22.25 18.4975 22.5858 18.8333 23 18.8333C23.4142 18.8333 23.75 18.4975 23.75 18.0833H22.25ZM23.75 13.5C23.75 13.0858 23.4142 12.75 23 12.75C22.5858 12.75 22.25 13.0858 22.25 13.5H23.75ZM16.5833 23.5833V22.8333H14.75V23.5833V24.3333H16.5833V23.5833ZM14.75 23.5833H15.5V18.0833H14.75H14V23.5833H14.75ZM14.75 18.0833L15.4464 18.3619L17.2797 13.7785L16.5833 13.5L15.887 13.2215L14.0536 17.8048L14.75 18.0833ZM16.5833 13.5V14.25H24.8333V13.5V12.75H16.5833V13.5ZM24.8333 13.5L24.2477 13.9685L27.9143 18.5519L28.5 18.0833L29.0857 17.6148L25.419 13.0315L24.8333 13.5ZM28.5 18.0833V18.8333H29.4167V18.0833V17.3333H28.5V18.0833ZM29.4167 18.0833V18.8333C30.015 18.8333 30.5 19.3184 30.5 19.9167H31.25H32C32 18.4899 30.8434 17.3333 29.4167 17.3333V18.0833ZM31.25 19.9167H30.5V23.5833H31.25H32V19.9167H31.25ZM31.25 23.5833V22.8333H29.4167V23.5833V24.3333H31.25V23.5833ZM25.75 23.5833V22.8333H20.25V23.5833V24.3333H25.75V23.5833ZM14.75 18.0833V18.8333H28.5V18.0833V17.3333H14.75V18.0833ZM23 18.0833H23.75V13.5H23H22.25V18.0833H23Z" fill="#FDFBF9" fill-opacity="0.9"/>
</svg>
