<svg width="211" height="25" viewBox="0 0 211 25" fill="none" xmlns="http://www.w3.org/2000/svg">
<path d="M0.68 22.5V5.22H7.664C7.832 5.22 8.04 5.228 8.288 5.244C8.536 5.252 8.772 5.276 8.996 5.316C9.956 5.468 10.756 5.796 11.396 6.3C12.044 6.804 12.528 7.44 12.848 8.208C13.168 8.976 13.328 9.824 13.328 10.752C13.328 12.128 12.976 13.316 12.272 14.316C11.568 15.308 10.512 15.928 9.104 16.176L8.084 16.296H3.188V22.5H0.68ZM10.784 22.5L7.376 15.468L9.908 14.82L13.652 22.5H10.784ZM3.188 13.92H7.568C7.728 13.92 7.904 13.912 8.096 13.896C8.296 13.88 8.484 13.852 8.66 13.812C9.172 13.692 9.584 13.472 9.896 13.152C10.208 12.824 10.432 12.448 10.568 12.024C10.704 11.6 10.772 11.176 10.772 10.752C10.772 10.328 10.704 9.908 10.568 9.492C10.432 9.068 10.208 8.696 9.896 8.376C9.584 8.048 9.172 7.824 8.66 7.704C8.484 7.656 8.296 7.624 8.096 7.608C7.904 7.592 7.728 7.584 7.568 7.584H3.188V13.92ZM22.0374 22.86C20.7494 22.86 19.6174 22.58 18.6414 22.02C17.6734 21.452 16.9174 20.664 16.3734 19.656C15.8374 18.64 15.5694 17.464 15.5694 16.128C15.5694 14.712 15.8334 13.484 16.3614 12.444C16.8974 11.404 17.6414 10.6 18.5934 10.032C19.5454 9.464 20.6534 9.18 21.9174 9.18C23.2374 9.18 24.3614 9.488 25.2894 10.104C26.2174 10.712 26.9094 11.58 27.3654 12.708C27.8294 13.836 28.0134 15.176 27.9174 16.728H25.4094V15.816C25.3934 14.312 25.1054 13.2 24.5454 12.48C23.9934 11.76 23.1494 11.4 22.0134 11.4C20.7574 11.4 19.8134 11.796 19.1814 12.588C18.5494 13.38 18.2334 14.524 18.2334 16.02C18.2334 17.444 18.5494 18.548 19.1814 19.332C19.8134 20.108 20.7254 20.496 21.9174 20.496C22.7014 20.496 23.3774 20.32 23.9454 19.968C24.5214 19.608 24.9694 19.096 25.2894 18.432L27.7494 19.212C27.2454 20.372 26.4814 21.272 25.4574 21.912C24.4334 22.544 23.2934 22.86 22.0374 22.86ZM17.4174 16.728V14.772H26.6694V16.728H17.4174ZM35.5657 22.848C33.9897 22.848 32.7057 22.5 31.7137 21.804C30.7217 21.108 30.1137 20.128 29.8897 18.864L32.4577 18.468C32.6177 19.14 32.9857 19.672 33.5617 20.064C34.1457 20.448 34.8697 20.64 35.7337 20.64C36.5177 20.64 37.1297 20.48 37.5697 20.16C38.0177 19.84 38.2417 19.4 38.2417 18.84C38.2417 18.512 38.1617 18.248 38.0017 18.048C37.8497 17.84 37.5257 17.644 37.0297 17.46C36.5337 17.276 35.7777 17.048 34.7617 16.776C33.6497 16.488 32.7657 16.18 32.1097 15.852C31.4617 15.516 30.9977 15.128 30.7177 14.688C30.4457 14.24 30.3097 13.7 30.3097 13.068C30.3097 12.284 30.5177 11.6 30.9337 11.016C31.3497 10.432 31.9337 9.98 32.6857 9.66C33.4457 9.34 34.3337 9.18 35.3497 9.18C36.3417 9.18 37.2257 9.336 38.0017 9.648C38.7777 9.96 39.4057 10.404 39.8857 10.98C40.3657 11.548 40.6537 12.216 40.7497 12.984L38.1817 13.452C38.0937 12.828 37.8017 12.336 37.3057 11.976C36.8097 11.616 36.1657 11.42 35.3737 11.388C34.6137 11.356 33.9977 11.484 33.5257 11.772C33.0537 12.052 32.8177 12.44 32.8177 12.936C32.8177 13.224 32.9057 13.468 33.0817 13.668C33.2657 13.868 33.6177 14.06 34.1377 14.244C34.6577 14.428 35.4257 14.648 36.4417 14.904C37.5297 15.184 38.3937 15.496 39.0337 15.84C39.6737 16.176 40.1297 16.58 40.4017 17.052C40.6817 17.516 40.8217 18.08 40.8217 18.744C40.8217 20.024 40.3537 21.028 39.4177 21.756C38.4897 22.484 37.2057 22.848 35.5657 22.848ZM49.2249 22.86C47.9369 22.86 46.8049 22.58 45.8289 22.02C44.8609 21.452 44.1049 20.664 43.5609 19.656C43.0249 18.64 42.7569 17.464 42.7569 16.128C42.7569 14.712 43.0209 13.484 43.5489 12.444C44.0849 11.404 44.8289 10.6 45.7809 10.032C46.7329 9.464 47.8409 9.18 49.1049 9.18C50.4249 9.18 51.5489 9.488 52.4769 10.104C53.4049 10.712 54.0969 11.58 54.5529 12.708C55.0169 13.836 55.2009 15.176 55.1049 16.728H52.5969V15.816C52.5809 14.312 52.2929 13.2 51.7329 12.48C51.1809 11.76 50.3369 11.4 49.2009 11.4C47.9449 11.4 47.0009 11.796 46.3689 12.588C45.7369 13.38 45.4209 14.524 45.4209 16.02C45.4209 17.444 45.7369 18.548 46.3689 19.332C47.0009 20.108 47.9129 20.496 49.1049 20.496C49.8889 20.496 50.5649 20.32 51.1329 19.968C51.7089 19.608 52.1569 19.096 52.4769 18.432L54.9369 19.212C54.4329 20.372 53.6689 21.272 52.6449 21.912C51.6209 22.544 50.4809 22.86 49.2249 22.86ZM44.6049 16.728V14.772H53.8569V16.728H44.6049ZM65.2132 22.5C64.3972 22.66 63.5972 22.728 62.8132 22.704C62.0292 22.68 61.3292 22.528 60.7132 22.248C60.0972 21.968 59.6332 21.528 59.3212 20.928C59.0412 20.392 58.8892 19.848 58.8652 19.296C58.8492 18.736 58.8412 18.104 58.8412 17.4V5.94H61.3612V17.28C61.3612 17.8 61.3652 18.252 61.3732 18.636C61.3892 19.02 61.4732 19.344 61.6252 19.608C61.9132 20.104 62.3692 20.388 62.9932 20.46C63.6252 20.524 64.3652 20.496 65.2132 20.376V22.5ZM56.3572 11.556V9.54H65.2132V11.556H56.3572ZM72.7503 22.5V5.22H79.7343C79.9023 5.22 80.1103 5.228 80.3583 5.244C80.6063 5.252 80.8423 5.276 81.0663 5.316C82.0263 5.468 82.8263 5.796 83.4663 6.3C84.1143 6.804 84.5983 7.44 84.9183 8.208C85.2383 8.976 85.3983 9.824 85.3983 10.752C85.3983 11.688 85.2383 12.54 84.9183 13.308C84.5983 14.076 84.1143 14.712 83.4663 15.216C82.8263 15.72 82.0263 16.048 81.0663 16.2C80.8423 16.232 80.6023 16.256 80.3463 16.272C80.0983 16.288 79.8943 16.296 79.7343 16.296H75.2583V22.5H72.7503ZM75.2583 13.92H79.6383C79.7983 13.92 79.9743 13.912 80.1663 13.896C80.3663 13.88 80.5543 13.852 80.7303 13.812C81.2423 13.692 81.6543 13.472 81.9663 13.152C82.2783 12.824 82.5023 12.448 82.6383 12.024C82.7743 11.6 82.8423 11.176 82.8423 10.752C82.8423 10.328 82.7743 9.908 82.6383 9.492C82.5023 9.068 82.2783 8.696 81.9663 8.376C81.6543 8.048 81.2423 7.824 80.7303 7.704C80.5543 7.656 80.3663 7.624 80.1663 7.608C79.9743 7.592 79.7983 7.584 79.6383 7.584H75.2583V13.92ZM91.0588 22.86C90.0988 22.86 89.2948 22.684 88.6468 22.332C87.9988 21.972 87.5068 21.5 87.1708 20.916C86.8428 20.324 86.6788 19.676 86.6788 18.972C86.6788 18.316 86.7948 17.74 87.0268 17.244C87.2588 16.748 87.6028 16.328 88.0588 15.984C88.5148 15.632 89.0748 15.348 89.7388 15.132C90.3148 14.964 90.9668 14.816 91.6948 14.688C92.4228 14.56 93.1868 14.44 93.9868 14.328C94.7948 14.216 95.5948 14.104 96.3868 13.992L95.4748 14.496C95.4908 13.48 95.2748 12.728 94.8268 12.24C94.3868 11.744 93.6268 11.496 92.5468 11.496C91.8668 11.496 91.2428 11.656 90.6748 11.976C90.1068 12.288 89.7108 12.808 89.4868 13.536L87.1468 12.816C87.4668 11.704 88.0748 10.82 88.9708 10.164C89.8748 9.508 91.0748 9.18 92.5708 9.18C93.7308 9.18 94.7388 9.38 95.5948 9.78C96.4588 10.172 97.0908 10.796 97.4908 11.652C97.6988 12.076 97.8268 12.524 97.8748 12.996C97.9228 13.468 97.9468 13.976 97.9468 14.52V22.5H95.7268V19.536L96.1588 19.92C95.6228 20.912 94.9388 21.652 94.1068 22.14C93.2828 22.62 92.2668 22.86 91.0588 22.86ZM91.5028 20.808C92.2148 20.808 92.8268 20.684 93.3388 20.436C93.8508 20.18 94.2628 19.856 94.5748 19.464C94.8868 19.072 95.0908 18.664 95.1868 18.24C95.3228 17.856 95.3988 17.424 95.4148 16.944C95.4388 16.464 95.4508 16.08 95.4508 15.792L96.2668 16.092C95.4748 16.212 94.7548 16.32 94.1068 16.416C93.4588 16.512 92.8708 16.608 92.3428 16.704C91.8228 16.792 91.3588 16.9 90.9508 17.028C90.6068 17.148 90.2988 17.292 90.0268 17.46C89.7628 17.628 89.5508 17.832 89.3908 18.072C89.2388 18.312 89.1628 18.604 89.1628 18.948C89.1628 19.284 89.2468 19.596 89.4148 19.884C89.5828 20.164 89.8388 20.388 90.1828 20.556C90.5268 20.724 90.9668 20.808 91.5028 20.808ZM106.019 22.848C104.443 22.848 103.159 22.5 102.167 21.804C101.175 21.108 100.567 20.128 100.343 18.864L102.911 18.468C103.071 19.14 103.439 19.672 104.015 20.064C104.599 20.448 105.323 20.64 106.187 20.64C106.971 20.64 107.583 20.48 108.023 20.16C108.471 19.84 108.695 19.4 108.695 18.84C108.695 18.512 108.615 18.248 108.455 18.048C108.303 17.84 107.979 17.644 107.483 17.46C106.987 17.276 106.231 17.048 105.215 16.776C104.103 16.488 103.219 16.18 102.563 15.852C101.915 15.516 101.451 15.128 101.171 14.688C100.899 14.24 100.763 13.7 100.763 13.068C100.763 12.284 100.971 11.6 101.387 11.016C101.803 10.432 102.387 9.98 103.139 9.66C103.899 9.34 104.787 9.18 105.803 9.18C106.795 9.18 107.679 9.336 108.455 9.648C109.231 9.96 109.859 10.404 110.339 10.98C110.819 11.548 111.107 12.216 111.203 12.984L108.635 13.452C108.547 12.828 108.255 12.336 107.759 11.976C107.263 11.616 106.619 11.42 105.827 11.388C105.067 11.356 104.451 11.484 103.979 11.772C103.507 12.052 103.271 12.44 103.271 12.936C103.271 13.224 103.359 13.468 103.535 13.668C103.719 13.868 104.071 14.06 104.591 14.244C105.111 14.428 105.879 14.648 106.895 14.904C107.983 15.184 108.847 15.496 109.487 15.84C110.127 16.176 110.583 16.58 110.855 17.052C111.135 17.516 111.275 18.08 111.275 18.744C111.275 20.024 110.807 21.028 109.871 21.756C108.943 22.484 107.659 22.848 106.019 22.848ZM118.886 22.848C117.31 22.848 116.026 22.5 115.034 21.804C114.042 21.108 113.434 20.128 113.21 18.864L115.778 18.468C115.938 19.14 116.306 19.672 116.882 20.064C117.466 20.448 118.19 20.64 119.054 20.64C119.838 20.64 120.45 20.48 120.89 20.16C121.338 19.84 121.562 19.4 121.562 18.84C121.562 18.512 121.482 18.248 121.322 18.048C121.17 17.84 120.846 17.644 120.35 17.46C119.854 17.276 119.098 17.048 118.082 16.776C116.97 16.488 116.086 16.18 115.43 15.852C114.782 15.516 114.318 15.128 114.038 14.688C113.766 14.24 113.63 13.7 113.63 13.068C113.63 12.284 113.838 11.6 114.254 11.016C114.67 10.432 115.254 9.98 116.006 9.66C116.766 9.34 117.654 9.18 118.67 9.18C119.662 9.18 120.546 9.336 121.322 9.648C122.098 9.96 122.726 10.404 123.206 10.98C123.686 11.548 123.974 12.216 124.07 12.984L121.502 13.452C121.414 12.828 121.122 12.336 120.626 11.976C120.13 11.616 119.486 11.42 118.694 11.388C117.934 11.356 117.318 11.484 116.846 11.772C116.374 12.052 116.138 12.44 116.138 12.936C116.138 13.224 116.226 13.468 116.402 13.668C116.586 13.868 116.938 14.06 117.458 14.244C117.978 14.428 118.746 14.648 119.762 14.904C120.85 15.184 121.714 15.496 122.354 15.84C122.994 16.176 123.45 16.58 123.722 17.052C124.002 17.516 124.142 18.08 124.142 18.744C124.142 20.024 123.674 21.028 122.738 21.756C121.81 22.484 120.526 22.848 118.886 22.848ZM129.088 22.5L125.128 9.528L127.612 9.54L130.324 18.432L133.06 9.54H135.22L137.956 18.432L140.668 9.54H143.14L139.18 22.5H137.164L134.14 13.116L131.104 22.5H129.088ZM150.449 22.86C149.153 22.86 148.029 22.568 147.077 21.984C146.125 21.4 145.389 20.596 144.869 19.572C144.357 18.54 144.101 17.352 144.101 16.008C144.101 14.656 144.365 13.468 144.893 12.444C145.421 11.412 146.161 10.612 147.113 10.044C148.065 9.468 149.177 9.18 150.449 9.18C151.745 9.18 152.869 9.472 153.821 10.056C154.773 10.64 155.509 11.444 156.029 12.468C156.549 13.492 156.809 14.672 156.809 16.008C156.809 17.36 156.545 18.552 156.017 19.584C155.497 20.608 154.761 21.412 153.809 21.996C152.857 22.572 151.737 22.86 150.449 22.86ZM150.449 20.496C151.689 20.496 152.613 20.08 153.221 19.248C153.837 18.408 154.145 17.328 154.145 16.008C154.145 14.656 153.833 13.576 153.209 12.768C152.593 11.952 151.673 11.544 150.449 11.544C149.609 11.544 148.917 11.736 148.373 12.12C147.829 12.496 147.425 13.02 147.161 13.692C146.897 14.356 146.765 15.128 146.765 16.008C146.765 17.368 147.077 18.456 147.701 19.272C148.325 20.088 149.241 20.496 150.449 20.496ZM159.446 22.5V9.54H161.678V12.684L161.366 12.276C161.526 11.86 161.734 11.48 161.99 11.136C162.246 10.784 162.542 10.496 162.878 10.272C163.206 10.032 163.57 9.848 163.97 9.72C164.378 9.584 164.794 9.504 165.218 9.48C165.642 9.448 166.05 9.468 166.442 9.54V11.892C166.018 11.78 165.546 11.748 165.026 11.796C164.514 11.844 164.042 12.008 163.61 12.288C163.202 12.552 162.878 12.872 162.638 13.248C162.406 13.624 162.238 14.044 162.134 14.508C162.03 14.964 161.978 15.448 161.978 15.96V22.5H159.446ZM173.641 22.86C172.433 22.86 171.389 22.56 170.509 21.96C169.637 21.36 168.961 20.544 168.481 19.512C168.009 18.472 167.773 17.304 167.773 16.008C167.773 14.704 168.013 13.54 168.493 12.516C168.973 11.484 169.653 10.672 170.533 10.08C171.421 9.48 172.473 9.18 173.689 9.18C174.913 9.18 175.941 9.48 176.773 10.08C177.613 10.672 178.245 11.484 178.669 12.516C179.101 13.548 179.317 14.712 179.317 16.008C179.317 17.304 179.101 18.468 178.669 19.5C178.237 20.532 177.601 21.352 176.761 21.96C175.921 22.56 174.881 22.86 173.641 22.86ZM173.989 20.592C174.813 20.592 175.485 20.396 176.005 20.004C176.525 19.612 176.905 19.072 177.145 18.384C177.385 17.696 177.505 16.904 177.505 16.008C177.505 15.112 177.381 14.32 177.133 13.632C176.893 12.944 176.517 12.408 176.005 12.024C175.501 11.64 174.857 11.448 174.073 11.448C173.241 11.448 172.557 11.652 172.021 12.06C171.485 12.468 171.085 13.016 170.821 13.704C170.565 14.392 170.437 15.16 170.437 16.008C170.437 16.864 170.565 17.64 170.821 18.336C171.085 19.024 171.477 19.572 171.997 19.98C172.525 20.388 173.189 20.592 173.989 20.592ZM177.505 22.5V13.176H177.217V5.22H179.737V22.5H177.505ZM186.219 24.18H210.219V0.18H186.219V24.18Z" fill="#2F2B3D" fill-opacity="0.9"/>
</svg>
